<svg xmlns="http://www.w3.org/2000/svg" width="82.169" height="21.231" viewBox="0 0 82.169 21.231">
    <path d="M21.552,12.143A4.083,4.083,0,1,1,28.321,9.48a6.824,6.824,0,0,1-13.623-.6V0H18.27V8.877a3.266,3.266,0,0,0,3.282,3.266Zm17.567,3.574a4.083,4.083,0,1,1,3.922-3.571h1.332c.04,0,.08,0,.12,0A4.083,4.083,0,1,1,51.231,9.71a6.917,6.917,0,0,1-6.858,6.009H42.844a6.845,6.845,0,0,1-6.712,5.512H35.01V17.657h1.122a3.267,3.267,0,0,0,2.986-1.942Zm27.3-5.1q.048.189.08.384a3.267,3.267,0,0,0,3.11,2.27v3.574a6.815,6.815,0,0,1-4.738-1.907,4.083,4.083,0,0,1-5.219-6.258,3.266,3.266,0,0,0-3.21,3.266v9.283H52.87V11.943a6.839,6.839,0,0,1,13.55-1.327Zm3.6-9.595h3.574V10a3.266,3.266,0,0,0,3.266,3.266V16.84A6.839,6.839,0,0,1,70.021,10V1.021ZM33.99,8.472v5.916a6.839,6.839,0,0,1-6.839,6.839V17.655a3.266,3.266,0,0,0,3.266-3.267V8.472h3.574Zm28.4,10,2.253-1.778a4.234,4.234,0,0,0,4.065,1.552l.5,2.826a7.1,7.1,0,0,1-6.817-2.6Zm13.031-7.378-.014-3.1a4.572,4.572,0,0,0,4.023-2.428L82.169,7.02A7.672,7.672,0,0,1,75.423,11.093ZM45.207.78l.6,3a4.488,4.488,0,0,0-1.949.92L41.931,2.32A7.546,7.546,0,0,1,45.207.778ZM22.548.78l.6,3a4.488,4.488,0,0,0-1.95.92L19.274,2.321A7.546,7.546,0,0,1,22.548.778ZM4.8,8.118,6.219,5.409a4.488,4.488,0,0,0,2.093.514V8.982A7.549,7.549,0,0,1,4.8,8.118ZM0,8.865H3.572a3.266,3.266,0,1,0,6.533,0V4.185h3.572v4.68A6.839,6.839,0,1,1,0,8.865Z"
          fill="#ffff"/>
</svg>